<?xml version="1.0" encoding="utf-8"?>
<!-- Generator: Adobe Illustrator 22.0.1, SVG Export Plug-In . SVG Version: 6.00 Build 0)  -->
<svg version="1.1" id="Logo" xmlns="http://www.w3.org/2000/svg" xmlns:xlink="http://www.w3.org/1999/xlink" x="0px" y="0px"
	 viewBox="0 0 1000 158" style="enable-background:new 0 0 1000 158;" xml:space="preserve">
<style type="text/css">
	.st0{fill:#000066;}
	.st1{fill:#CC0000;}
	.st2{fill:none;stroke:#FF0B0B;stroke-width:0.25;stroke-miterlimit:10;}
	.st3{fill:none;stroke:#D61D1D;stroke-miterlimit:10;}
</style>
<g>
	<g>
		<path class="st0" d="M503.8,0.4c-9.7,0-17.6,7.9-17.6,17.6v75.3L409.5,6.4l0,0c-3.3-3.6-7.9-6-13.2-6c-9.7,0-17.6,7.9-17.6,17.6
			v121.8c0,9.7,7.9,17.6,17.6,17.6s17.6-7.9,17.6-17.6V64.3l75.9,86c3.2,4.2,8.3,7,13.9,7c9.7,0,17.6-7.9,17.6-17.6V18
			C521.4,8.2,513.5,0.4,503.8,0.4z"/>
		<path class="st0" d="M1000,18c0-9.7-7.9-17.6-17.6-17.6S964.9,8.3,964.9,18v121.8c0,9.7,7.9,17.6,17.6,17.6s17.6-7.9,17.6-17.6V18
			z"/>
		<path class="st0" d="M703.1,137.9c0-0.1,0-0.1,0-0.2c0-0.2-0.1-0.5-0.1-0.7c0-0.2-0.1-0.2-0.1-0.4c0-0.2-0.1-0.3-0.1-0.4
			c-0.1-0.2-0.1-0.5-0.2-0.6c0-0.1,0-0.1,0-0.2c-0.3-1.2-0.7-2.2-1.2-3.3l0,0l0,0l0,0l0,0L653.4,15.6C649.6,6.3,640-0.2,629.4,0l0,0
			h-0.1h-0.1l0,0c-10.6-0.2-20.2,6.3-24,15.6l-48.1,116.6l0,0l0,0l0,0l0,0c-0.5,1.1-0.9,2.2-1.2,3.3c0,0.1,0,0.1,0,0.2
			c-0.1,0.2-0.1,0.5-0.2,0.6c0,0.2-0.1,0.3-0.1,0.4c0,0.2-0.1,0.2-0.1,0.4c0,0.2-0.1,0.5-0.1,0.7c0,0.1,0,0.1,0,0.2
			c-0.2,1.7-0.1,3.4,0.2,5c0.4,2.1,1.2,4,2.2,5.8l0,0c0.1,0.2,0.2,0.4,0.3,0.5c0.1,0.1,0.1,0.2,0.2,0.2c0.1,0.2,0.2,0.2,0.2,0.4
			c0.1,0.2,0.2,0.2,0.2,0.4c0.1,0.1,0.1,0.2,0.2,0.2c0.2,0.2,0.2,0.3,0.4,0.5l0,0c1.3,1.5,2.9,2.9,4.7,4c1.4,0.9,3,1.5,4.6,1.9
			c0.1,0,0.1,0,0.2,0c0.2,0.1,0.5,0.1,0.6,0.2c0.2,0,0.2,0.1,0.4,0.1c0.2,0,0.3,0.1,0.4,0.1c0.2,0,0.5,0.1,0.6,0.1
			c0.1,0,0.1,0,0.2,0c1.7,0.2,3.3,0.1,5-0.2c2.1-0.4,4-1.2,5.8-2.2l0,0c0.2-0.1,0.4-0.2,0.5-0.3c0.1-0.1,0.2-0.1,0.2-0.2
			c0.2-0.1,0.2-0.2,0.4-0.2c0.2-0.1,0.2-0.2,0.4-0.2c0.1-0.1,0.2-0.1,0.2-0.2c0.2-0.2,0.3-0.2,0.5-0.4l0,0c1.5-1.3,2.9-2.9,4-4.7
			c0.5-0.9,1-2,1.4-3l7.3-20.4h65l7.3,20.4c0.4,1.1,0.9,2.1,1.4,3c1.1,1.9,2.4,3.4,4,4.7l0,0c0.2,0.2,0.3,0.3,0.5,0.4
			c0.1,0.1,0.2,0.1,0.2,0.2c0.2,0.1,0.2,0.2,0.4,0.2c0.2,0.1,0.2,0.2,0.4,0.2c0.1,0.1,0.2,0.1,0.2,0.2c0.2,0.2,0.4,0.2,0.5,0.3l0,0
			c1.8,1.1,3.7,1.8,5.8,2.2c1.6,0.3,3.3,0.4,5,0.2c0.1,0,0.1,0,0.2,0c0.2,0,0.5-0.1,0.6-0.1c0.2,0,0.3-0.1,0.4-0.1
			c0.2,0,0.2-0.1,0.4-0.1c0.2-0.1,0.5-0.1,0.6-0.2c0.1,0,0.1,0,0.2,0c1.6-0.4,3.2-1.1,4.6-1.9c1.9-1.1,3.4-2.4,4.7-4l0,0
			c0.2-0.2,0.3-0.3,0.4-0.5c0.1-0.1,0.1-0.2,0.2-0.2c0.1-0.2,0.2-0.2,0.2-0.4c0.1-0.2,0.2-0.2,0.2-0.4c0.1-0.1,0.1-0.2,0.2-0.2
			c0.2-0.2,0.2-0.4,0.3-0.5l0,0c1.1-1.8,1.8-3.7,2.2-5.8C703.2,141.3,703.3,139.6,703.1,137.9z M607.2,95.7l22.1-60.3l22.1,60.3
			H607.2z"/>
		<path class="st0" d="M930.6,136.9c-0.1-0.5-0.2-1.1-0.4-1.5l0,0L909.7,21.3l0,0c-2-11-10.8-19.8-24.2-19.8
			c-11.4,0-19.5,6.4-22.8,15.2l0,0v0.1c-0.2,0.5-0.4,1.2-0.5,1.7L834.2,101l-27.9-82.6c-0.2-0.5-0.4-1.2-0.5-1.7v-0.1l0,0
			c-3.3-8.7-11.5-15.2-22.8-15.2c-13.3,0-22.1,8.8-24.2,19.8l0,0l-20.6,114.1l0,0c-0.2,0.5-0.2,1-0.4,1.5
			c-1.7,9.5,4.6,18.7,14.2,20.4c9.5,1.7,18.7-4.6,20.4-14.2c0.1-0.5,0.2-1,0.2-1.5l14-91.6l29.3,94.6c0.2,0.5,0.3,1,0.5,1.5l0,0l0,0
			c2.9,7.6,10.4,12.1,18,11.3c7.7,0.7,15.2-3.7,18-11.3l0,0l0,0c0.2-0.5,0.4-1,0.5-1.5l29.3-94.6l14,91.6c0.1,0.5,0.1,1,0.2,1.5
			c1.7,9.5,10.8,15.9,20.4,14.2C926.4,155.7,932.3,146.5,930.6,136.9z"/>
	</g>
	<g>
		<g>
			<path class="st1" d="M135.8,16.2C134.4,14.9,49.5-56.7,0,127.7c44,23.1,40.9,21.4,44,23.1C67.3,74.2,64.6,3.2,135.8,16.2z"/>
			<path class="st1" d="M159,48.8c-4.2-10.1-16.3-23.3-17.3-23.7c-1-0.4-21-10.4-43.7,3.7c8.9,19.4,17.7,28.8,18.9,35
				c-3,1.8-15.6,6.7-17.8,7.9c6.3,2.2,56.9,18,56.9,18l20-47.9C175.9,41.8,162.2,47.6,159,48.8z"/>
		</g>
		<path class="st2" d="M134.3,72.8"/>
		<path class="st2" d="M200.9,46.8"/>
		<g>
			<path class="st0" d="M207.4,121.8c-11.5-12.8-24.3-28.1-24.3-28.1l-44.4,14.3c0,0,4.6,10.8,17.1,23.6
				C156.6,133.5,189.7,147.1,207.4,121.8z"/>
			<path class="st0" d="M284.6,7.6l-49.7,24.8l19.4,6.2c0,0-28.5,127.6-90.5,102.9c91.1,65,129.6-91.9,129.6-91.9l17.4,5.5
				L284.6,7.6z"/>
		</g>
		<path class="st3" d="M139.5,67.9"/>
	</g>
</g>
</svg>
